<svg xmlns="http://www.w3.org/2000/svg" xmlns:xlink="http://www.w3.org/1999/xlink" width="500" zoomAndPan="magnify" viewBox="0 0 375 374.999991" height="500" preserveAspectRatio="xMidYMid meet" version="1.0"><defs><clipPath id="a70fe479c2"><path d="M 46.566406 84.929688 L 328.566406 84.929688 L 328.566406 290.429688 L 46.566406 290.429688 Z M 46.566406 84.929688 " clip-rule="nonzero"/></clipPath></defs><rect x="-37.5" width="450" fill="#ffffff" y="-37.499999" height="449.999989" fill-opacity="1"/><rect x="-37.5" width="450" fill="#1c4a89" y="-37.499999" height="449.999989" fill-opacity="1"/><g clip-path="url(#a70fe479c2)"><path fill="#ffffff" d="M 319.316406 268.519531 C 319.316406 272.535156 315.992188 275.808594 311.730469 275.8125 L 187.484375 280.953125 L 63.054688 275.808594 C 58.976562 275.808594 55.65625 272.535156 55.65625 268.519531 L 55.65625 115.792969 C 55.65625 111.757812 58.976562 108.476562 63.054688 108.476562 L 68.484375 108.476562 L 68.484375 263.191406 C 68.804688 266.390625 71.328125 267.539062 73.265625 267.734375 C 73.671875 267.773438 114.84375 265.632812 146.8125 265.507812 C 172.925781 265.507812 186.890625 270.984375 187.476562 270.984375 C 188.082031 270.984375 202.035156 265.507812 228.980469 265.507812 C 260.121094 265.632812 301.289062 267.738281 301.695312 267.734375 C 304.71875 267.695312 306.382812 265.464844 306.476562 263.191406 L 306.476562 108.476562 L 311.917969 108.476562 C 315.996094 108.476562 319.316406 111.757812 319.316406 115.792969 Z M 175.410156 258.722656 C 168.398438 257.496094 158.675781 256.417969 145.945312 256.417969 C 128.542969 256.484375 108.191406 257.160156 93.335938 257.75 C 107.957031 253.292969 128.683594 248.109375 146.171875 248.027344 C 159.695312 248.027344 169.273438 253.527344 175.410156 258.722656 Z M 77.582031 111.316406 C 87.550781 107.308594 122.316406 94.039062 145.898438 94.039062 C 168.878906 94.292969 179.929688 104.359375 182.9375 107.660156 L 182.9375 253.1875 C 175.625 246.53125 163.433594 238.9375 145.933594 238.9375 C 120.863281 239.046875 90.46875 248.757812 77.582031 253.316406 Z M 281.667969 257.753906 C 266.699219 257.160156 246.078125 256.484375 228.15625 256.417969 C 215.929688 256.417969 206.5 257.472656 199.625 258.6875 C 205.785156 253.5 215.398438 248.027344 229 248.027344 C 246.382812 248.105469 267.066406 253.296875 281.667969 257.753906 Z M 192.03125 107.664062 C 195.078125 104.339844 206.210938 94.292969 229.6875 94.035156 C 252.730469 94.035156 287.421875 107.304688 297.382812 111.316406 L 297.382812 253.316406 C 284.488281 248.757812 254.066406 239.046875 228.792969 238.9375 C 211.449219 238.9375 199.332031 246.519531 192.03125 253.164062 Z M 311.917969 99.382812 L 291.746094 99.382812 C 276.402344 93.707031 249.429688 84.949219 228.976562 84.949219 C 206.269531 85.195312 193.359375 94.042969 187.566406 99.382812 L 187.386719 99.382812 C 181.546875 94.046875 168.496094 85.195312 145.285156 84.941406 C 125.328125 84.941406 98.488281 93.707031 83.199219 99.382812 L 63.054688 99.382812 C 53.964844 99.382812 46.566406 106.746094 46.566406 115.792969 L 46.566406 268.519531 C 46.566406 277.546875 53.964844 284.894531 62.859375 284.894531 C 62.867188 284.894531 187.300781 290.042969 187.300781 290.042969 C 187.359375 290.050781 187.421875 290.050781 187.484375 290.050781 C 187.546875 290.050781 187.609375 290.050781 187.671875 290.042969 L 311.917969 284.898438 C 321.007812 284.898438 328.40625 277.550781 328.40625 268.519531 L 328.40625 115.792969 C 328.40625 106.742188 321.007812 99.382812 311.917969 99.382812 " fill-opacity="1" fill-rule="nonzero"/></g></svg>